<svg xmlns="http://www.w3.org/2000/svg" width="268" height="102.555" viewBox="0 0 268 102.555"><defs><style>.a{fill:#fff;}</style></defs><g transform="translate(1.87 9.715)"><path class="a" d="M499.91,63.241a3,3,0,0,1-.807,2.276,3.268,3.268,0,0,1-2.347.771,3.179,3.179,0,0,1-2.3-.788,3,3,0,0,1-.816-2.259,2.966,2.966,0,0,1,.833-2.249,3.172,3.172,0,0,1,2.286-.8,3.239,3.239,0,0,1,2.33.788A2.981,2.981,0,0,1,499.91,63.241Zm-5.358,6.129h4.372l.915,17.474h-6.2Z" transform="translate(-493.637 -52.346)"/><path class="a" d="M515.769,77.561H510.3V51.36h15.018v4.552h-9.552v6.756h8.889V67.2h-8.889Z" transform="translate(-498.674 -49.676)"/><path class="a" d="M546.993,80.427a10.343,10.343,0,0,1-7.564-2.67q-2.722-2.671-2.723-7.563,0-5.035,2.518-7.787a8.966,8.966,0,0,1,6.963-2.751,8.826,8.826,0,0,1,6.613,2.419,9.154,9.154,0,0,1,2.365,6.685v2.653H542.243a5.257,5.257,0,0,0,1.381,3.638,4.856,4.856,0,0,0,3.619,1.308,15.026,15.026,0,0,0,3.424-.377,17.142,17.142,0,0,0,3.369-1.2V79.01a12.835,12.835,0,0,1-3.064,1.067A19.334,19.334,0,0,1,546.993,80.427Zm-.771-16.882a3.464,3.464,0,0,0-2.723,1.1,5.09,5.09,0,0,0-1.13,3.127h7.67a4.554,4.554,0,0,0-1.056-3.127A3.581,3.581,0,0,0,546.222,63.545Z" transform="translate(-506.654 -52.183)"/><path class="a" d="M574.892,76.831h-5.465V48.946h5.465Z" transform="translate(-516.544 -48.946)"/><path class="a" d="M585.04,51.616q0-2.67,2.974-2.67t2.975,2.67a2.6,2.6,0,0,1-.744,1.98,3.122,3.122,0,0,1-2.231.708Q585.039,54.3,585.04,51.616Zm5.7,25.216h-5.466V56.8h5.466Z" transform="translate(-521.263 -48.946)"/><path class="a" d="M608.929,80.427q-9.356,0-9.356-10.269,0-5.109,2.545-7.805t7.294-2.7a13.914,13.914,0,0,1,6.236,1.361l-1.613,4.231q-1.29-.52-2.4-.852a7.752,7.752,0,0,0-2.222-.331q-4.266,0-4.266,6.058,0,5.878,4.266,5.878a9.718,9.718,0,0,0,2.922-.421,10.537,10.537,0,0,0,2.688-1.317v4.677a8.793,8.793,0,0,1-2.68,1.165A15.076,15.076,0,0,1,608.929,80.427Z" transform="translate(-525.655 -52.183)"/><path class="a" d="M627.926,51.616q0-2.67,2.975-2.67t2.975,2.67a2.6,2.6,0,0,1-.745,1.98,3.12,3.12,0,0,1-2.231.708Q627.925,54.3,627.926,51.616Zm5.7,25.216h-5.466V56.8h5.466Z" transform="translate(-534.224 -48.946)"/><path class="a" d="M651.771,74.387a11.836,11.836,0,0,0,3.442-.627v4.068a12.28,12.28,0,0,1-5.019.914q-3.278,0-4.776-1.658a7.217,7.217,0,0,1-1.5-4.973v-9.66h-2.617V60.139l3.01-1.827,1.577-4.23h3.495v4.265H655v4.1h-5.609v9.66a2.132,2.132,0,0,0,.654,1.721A2.584,2.584,0,0,0,651.771,74.387Z" transform="translate(-538.268 -50.498)"/><path class="a" d="M679.086,80.053l-1.057-2.724h-.144a8.059,8.059,0,0,1-2.841,2.411,9.177,9.177,0,0,1-3.807.672,6.162,6.162,0,0,1-4.545-1.649,6.334,6.334,0,0,1-1.657-4.7,5.29,5.29,0,0,1,2.232-4.7q2.23-1.514,6.729-1.675l3.477-.107V66.7q0-3.046-3.119-3.046a14.208,14.208,0,0,0-5.645,1.451l-1.81-3.692a16.292,16.292,0,0,1,7.671-1.81,9.56,9.56,0,0,1,6.183,1.756A6.5,6.5,0,0,1,682.9,66.7V80.053Zm-1.612-9.284-2.114.072a6.781,6.781,0,0,0-3.549.86,2.7,2.7,0,0,0-1.165,2.4q0,2.312,2.653,2.312a4.2,4.2,0,0,0,3.037-1.093,3.836,3.836,0,0,0,1.138-2.9Z" transform="translate(-545.441 -52.167)"/><path class="a" d="M706.212,80.427q-9.356,0-9.356-10.269,0-5.109,2.545-7.805t7.295-2.7a13.917,13.917,0,0,1,6.236,1.361l-1.613,4.231q-1.291-.52-2.4-.852a7.748,7.748,0,0,0-2.221-.331q-4.267,0-4.267,6.058Q702.429,76,706.7,76a9.714,9.714,0,0,0,2.921-.421,10.537,10.537,0,0,0,2.688-1.317v4.677a8.792,8.792,0,0,1-2.679,1.165A15.073,15.073,0,0,1,706.212,80.427Z" transform="translate(-555.058 -52.183)"/><path class="a" d="M725.209,51.616q0-2.67,2.975-2.67t2.975,2.67a2.6,2.6,0,0,1-.744,1.98,3.123,3.123,0,0,1-2.232.708Q725.209,54.3,725.209,51.616Zm5.7,25.216h-5.466V56.8h5.466Z" transform="translate(-563.627 -48.946)"/><path class="a" d="M759.171,70.014q0,4.893-2.58,7.652a9.358,9.358,0,0,1-7.187,2.76,10.055,10.055,0,0,1-5.089-1.264,8.4,8.4,0,0,1-3.388-3.629,12.2,12.2,0,0,1-1.183-5.52q0-4.91,2.563-7.634a9.409,9.409,0,0,1,7.2-2.724,10.107,10.107,0,0,1,5.089,1.255,8.368,8.368,0,0,1,3.386,3.6A12.085,12.085,0,0,1,759.171,70.014Zm-13.854,0a8.4,8.4,0,0,0,.977,4.5,3.492,3.492,0,0,0,3.18,1.523,3.436,3.436,0,0,0,3.146-1.514,8.524,8.524,0,0,0,.959-4.508,8.273,8.273,0,0,0-.968-4.462,4.114,4.114,0,0,0-6.326-.009A8.265,8.265,0,0,0,745.317,70.014Z" transform="translate(-568.02 -52.183)"/><path class="a" d="M792.448,80.068h-5.466v-11.7a5.629,5.629,0,0,0-.77-3.252,2.8,2.8,0,0,0-2.456-1.084,3.691,3.691,0,0,0-3.316,1.532q-1.021,1.531-1.021,5.08v9.427h-5.465V60.032h4.175l.736,2.563h.3a5.782,5.782,0,0,1,2.519-2.2,8.577,8.577,0,0,1,3.647-.743,7.01,7.01,0,0,1,5.306,1.89A7.593,7.593,0,0,1,792.448,67Z" transform="translate(-578.36 -52.183)"/><path class="a" d="M816.961,80.427a10.343,10.343,0,0,1-7.564-2.67q-2.722-2.671-2.723-7.563,0-5.035,2.517-7.787a8.966,8.966,0,0,1,6.963-2.751,8.827,8.827,0,0,1,6.613,2.419,9.154,9.154,0,0,1,2.365,6.685v2.653H812.212a5.256,5.256,0,0,0,1.381,3.638,4.856,4.856,0,0,0,3.619,1.308,15.024,15.024,0,0,0,3.424-.377,17.146,17.146,0,0,0,3.369-1.2V79.01a12.832,12.832,0,0,1-3.065,1.067A19.322,19.322,0,0,1,816.961,80.427Zm-.771-16.882a3.466,3.466,0,0,0-2.724,1.1,5.1,5.1,0,0,0-1.129,3.127h7.67a4.554,4.554,0,0,0-1.056-3.127A3.582,3.582,0,0,0,816.19,63.545Z" transform="translate(-588.249 -52.183)"/><path class="a" d="M852.845,74.118a5.517,5.517,0,0,1-2.143,4.7q-2.141,1.614-6.406,1.613a20.092,20.092,0,0,1-3.728-.3,14.065,14.065,0,0,1-2.885-.869V74.746a19.085,19.085,0,0,0,3.432,1.2,13.914,13.914,0,0,0,3.361.484q2.975,0,2.976-1.72a1.438,1.438,0,0,0-.4-1.049,5.708,5.708,0,0,0-1.363-.913q-.966-.512-2.58-1.192a16.178,16.178,0,0,1-3.4-1.792,5.047,5.047,0,0,1-1.578-1.891,6.248,6.248,0,0,1-.492-2.625,4.759,4.759,0,0,1,2.07-4.131,10.083,10.083,0,0,1,5.869-1.46,16.654,16.654,0,0,1,7.043,1.577l-1.649,3.942q-1.5-.645-2.813-1.057a8.85,8.85,0,0,0-2.67-.412q-2.42,0-2.42,1.308a1.54,1.54,0,0,0,.779,1.273,21.18,21.18,0,0,0,3.414,1.6,15.9,15.9,0,0,1,3.441,1.774,5.255,5.255,0,0,1,1.613,1.9A5.854,5.854,0,0,1,852.845,74.118Z" transform="translate(-597.611 -52.183)"/><path class="a" d="M864.33,75a3.005,3.005,0,0,1,.807-2.277,3.271,3.271,0,0,1,2.347-.77,3.18,3.18,0,0,1,2.3.788,3.483,3.483,0,0,1-.008,4.489,3.123,3.123,0,0,1-2.294.816,3.216,3.216,0,0,1-2.33-.8A2.986,2.986,0,0,1,864.33,75Zm5.359-6.129h-4.373L864.4,51.36h6.2Z" transform="translate(-605.675 -49.676)"/></g><g transform="translate(99.283 44.608)"><g transform="translate(8.115 1.919)"><path class="a" d="M690.384,148.729h0a1.887,1.887,0,0,0-1.343-.471,1.84,1.84,0,0,0-1.279.616,12.5,12.5,0,0,1-18.547,0,1.859,1.859,0,0,0-2.622-.145,1.858,1.858,0,0,0-.146,2.624,16.214,16.214,0,0,0,24.084,0A1.862,1.862,0,0,0,690.384,148.729Z" transform="translate(-651.251 -115.773)"/><path class="a" d="M672.11,101.7a27.235,27.235,0,1,0,27.235,27.235A27.266,27.266,0,0,0,672.11,101.7Zm0,51.37a24.135,24.135,0,1,1,24.135-24.135A24.162,24.162,0,0,1,672.11,153.073Z" transform="translate(-644.875 -101.703)"/><g transform="translate(11.168 18.272)"><path class="a" d="M694.627,127.89a6.6,6.6,0,0,0-6.594,6.595,1.858,1.858,0,0,0,3.716,0,2.879,2.879,0,0,1,5.758,0,1.858,1.858,0,0,0,3.716,0A6.6,6.6,0,0,0,694.627,127.89Z" transform="translate(-669.086 -127.89)"/><path class="a" d="M667.474,127.89a6.6,6.6,0,0,0-6.594,6.595,1.858,1.858,0,0,0,3.716,0,2.879,2.879,0,1,1,5.757,0,1.858,1.858,0,0,0,3.716,0A6.6,6.6,0,0,0,667.474,127.89Z" transform="translate(-660.88 -127.89)"/></g></g><path class="a" d="M644.775,104.614l-1.781-.657a5.254,5.254,0,0,1-3.111-3.111l-.657-1.781a.17.17,0,0,0-.32,0l-.657,1.781a5.254,5.254,0,0,1-3.111,3.111l-1.781.657a.171.171,0,0,0,0,.32l1.781.657a5.253,5.253,0,0,1,3.111,3.111l.657,1.781a.17.17,0,0,0,.32,0l.657-1.781a5.252,5.252,0,0,1,3.111-3.111l1.782-.657a.171.171,0,0,0,0-.32Z" transform="translate(-633.245 -98.953)"/><path class="a" d="M728.5,170.976l-1.781-.657a5.252,5.252,0,0,1-3.111-3.111l-.657-1.782a.17.17,0,0,0-.32,0l-.657,1.781a5.254,5.254,0,0,1-3.111,3.111l-1.782.657a.171.171,0,0,0,0,.32l1.782.657a5.251,5.251,0,0,1,3.111,3.111l.657,1.781a.17.17,0,0,0,.32,0l.657-1.781a5.25,5.25,0,0,1,3.111-3.111l1.781-.657a.171.171,0,0,0,0-.32Z" transform="translate(-658.55 -119.011)"/></g><path class="a" d="M492.33,37.9H745.685c3.414,0,6.839.081,10.252,0,.149,0,.3,0,.447,0a1.423,1.423,0,0,0,0-2.843H503.029c-3.414,0-6.839-.081-10.252,0-.149,0-.3,0-.447,0a1.423,1.423,0,0,0,0,2.843Z" transform="translate(-490.957 -35.022)"/><g transform="translate(0.628 55.476)"><path class="a" d="M493.23,117.371h93.162a1.423,1.423,0,0,0,0-2.843H493.23a1.423,1.423,0,0,0,0,2.843Z" transform="translate(-491.857 -114.528)"/><g transform="translate(161.747)"><path class="a" d="M725.039,117.371H827.918a1.423,1.423,0,0,0,0-2.843H725.039a1.423,1.423,0,0,0,0,2.843Z" transform="translate(-723.666 -114.528)"/></g></g></svg>