<?xml version="1.0" encoding="utf-8"?>
<!-- Generator: Adobe Illustrator 24.1.3, SVG Export Plug-In . SVG Version: 6.00 Build 0)  -->
<svg version="1.1" id="Capa_1" xmlns="http://www.w3.org/2000/svg" xmlns:xlink="http://www.w3.org/1999/xlink" x="0px" y="0px"
	 viewBox="0 0 41.4 34.1" style="enable-background:new 0 0 41.4 34.1;" xml:space="preserve">
<style type="text/css">
	.st0{fill:#00DED5;}
</style>
<path class="st0" d="M38.2,0h-35C1.4,0,0,1.4,0,3.2v27.7c0,1.8,1.4,3.2,3.2,3.2h35c1.8,0,3.2-1.4,3.2-3.2V3.2C41.4,1.4,40,0,38.2,0z
	 M31.9,3.2c0.9,0,1.6,0.7,1.6,1.6l0,0c0,0.9-0.7,1.6-1.6,1.6l0,0c-0.9,0-1.6-0.7-1.6-1.6l0,0C30.3,3.9,31,3.2,31.9,3.2L31.9,3.2z
	 M27.1,3.2c0.9,0,1.6,0.7,1.6,1.6l0,0c0,0.9-0.7,1.6-1.6,1.6l0,0c-0.9,0-1.6-0.7-1.6-1.6l0,0C25.5,3.9,26.2,3.2,27.1,3.2L27.1,3.2z
	 M38.2,30.9h-35V9.6h35V30.9z M36.6,6.4c-0.9,0-1.6-0.7-1.6-1.6l0,0c0-0.9,0.7-1.6,1.6-1.6l0,0c0.9,0,1.6,0.7,1.6,1.6l0,0
	C38.2,5.7,37.5,6.4,36.6,6.4L36.6,6.4z M22.3,21.8c0.9,0,1.6-0.7,1.6-1.6l0,0c0-0.9-0.7-1.6-1.6-1.6l0,0c-0.9,0-1.6,0.7-1.6,1.6l0,0
	C20.7,21.1,21.4,21.8,22.3,21.8L22.3,21.8L22.3,21.8z M11.6,25.8V27c0,0.2,0.2,0.4,0.4,0.4l0,0h1.6c0.2,0,0.4-0.2,0.4-0.4l0,0v-1.2
	c0.9-0.1,1.8-0.5,2.5-1.2c0.7-0.6,1.1-1.5,1-2.4c0-0.6-0.2-1.3-0.5-1.8s-0.8-0.8-1.3-1.1c-0.9-0.3-1.9-0.6-2.8-0.8
	c-0.4,0-0.9-0.2-1.2-0.5c-0.2-0.2-0.3-0.4-0.3-0.7c0-0.4,0.2-1.1,1.5-1.1c0.6,0,1.1,0.2,1.6,0.6c0.1,0.1,0.2,0.3,0.3,0.4l0,0l0,0
	c0,0.1,0.1,0.1,0.2,0.1h2c0.1,0,0.3-0.1,0.3-0.3l0,0c0-0.1,0-0.2-0.1-0.3c-0.5-1.4-1.8-2.4-3.3-2.5V13c0-0.2-0.2-0.4-0.4-0.4l0,0
	h-1.6c-0.2,0-0.4,0.2-0.4,0.4l0,0v1.2c-0.9,0.1-1.6,0.5-2.2,1.2c-0.5,0.6-0.8,1.4-0.8,2.2c0,0.7,0.3,1.4,0.7,2
	c0.5,0.6,1.7,1.1,3.7,1.5c0.4,0.1,0.8,0.2,1.2,0.4c0.3,0.2,0.5,0.5,0.4,0.8c0,0.5-0.3,1-1.6,1c-0.4,0-0.8-0.1-1.2-0.2
	c-0.5-0.2-0.8-0.6-1.1-1l0,0l0,0c0-0.1-0.1-0.1-0.2-0.1H8.2c-0.1,0-0.3,0.1-0.3,0.3v0.1C8.4,24.4,9.8,25.6,11.6,25.8L11.6,25.8z
	 M27.1,21.8c0.9,0,1.6-0.7,1.6-1.6l0,0c0-0.9-0.7-1.6-1.6-1.6l0,0c-0.9,0-1.6,0.7-1.6,1.6l0,0C25.5,21.1,26.2,21.8,27.1,21.8
	L27.1,21.8z M31.9,21.8c0.9,0,1.6-0.7,1.6-1.6l0,0c0-0.9-0.7-1.6-1.6-1.6l0,0c-0.9,0-1.6,0.7-1.6,1.6l0,0
	C30.3,21.1,31,21.8,31.9,21.8L31.9,21.8z"/>
</svg>
