<?xml version="1.0" encoding="utf-8"?>
<!-- Generator: Adobe Illustrator 24.1.3, SVG Export Plug-In . SVG Version: 6.00 Build 0)  -->
<svg version="1.1" id="Capa_1" xmlns="http://www.w3.org/2000/svg" xmlns:xlink="http://www.w3.org/1999/xlink" x="0px" y="0px"
	 viewBox="0 0 38.3 38.3" style="enable-background:new 0 0 38.3 38.3;" xml:space="preserve">
<style type="text/css">
	.st0{fill:#048FF7;}
</style>
<g transform="translate(0.397)">
	<g transform="translate(-0.397 0)">
		<path class="st0" d="M19.2,38C8.8,38,0.4,29.5,0.4,19.2C0.4,8.8,8.8,0.4,19.2,0.4c3.3,0,6.5,0.9,9.4,2.5C29,3.1,29.1,3.6,28.9,4
			s-0.7,0.5-1.1,0.3C19.5-0.5,9,2.4,4.3,10.6s-1.9,18.7,6.3,23.5c8.2,4.7,18.7,1.9,23.5-6.3c1.5-2.6,2.3-5.6,2.3-8.6
			c0-0.8-0.1-1.5-0.2-2.3c-0.2-1.3-0.5-2.6-1-3.9c-0.3-0.8-0.7-1.6-1.1-2.4c-0.2-0.4-0.1-0.9,0.3-1.1c0.1-0.1,0.3-0.1,0.4-0.1
			c0.3,0,0.6,0.2,0.7,0.4c1.2,2.1,2,4.5,2.3,6.9C39.2,27,32,36.4,21.7,37.8C20.8,37.9,20,38,19.2,38L19.2,38z"/>
		<path class="st0" d="M19.2,38.3C8.6,38.3,0,29.8,0,19.2S8.6,0,19.2,0c3.4,0,6.7,0.9,9.6,2.6c0.6,0.3,0.8,1,0.4,1.6l0,0
			c-0.3,0.5-1,0.7-1.6,0.4C19.5-0.1,9.2,2.7,4.5,10.8s-1.9,18.4,6.2,23.1s18.4,1.9,23.1-6.2c3-5.2,3-11.7,0-16.9
			c-0.3-0.6-0.1-1.3,0.4-1.6l0,0c0.6-0.3,1.3-0.1,1.6,0.4c1.2,2.2,2.1,4.5,2.4,7c1.4,10.5-6,20.2-16.5,21.6
			C20.9,38.3,20,38.3,19.2,38.3L19.2,38.3z M19.2,0.7C9,0.7,0.8,9,0.8,19.2s8.3,18.4,18.4,18.4c10.2,0,18.4-8.3,18.4-18.4
			c0-0.8-0.1-1.6-0.2-2.4c-0.3-2.4-1.1-4.7-2.3-6.7c-0.1-0.2-0.4-0.3-0.6-0.2c-0.1,0.1-0.2,0.2-0.2,0.3s0,0.2,0,0.3
			c0.5,0.8,0.8,1.6,1.2,2.4c0.5,1.3,0.8,2.6,1,4c1.3,9.6-5.4,18.4-15.1,19.7C11.8,37.9,3,31.2,1.7,21.5C0.5,11.9,7.2,3.1,16.8,1.8
			C20.7,1.3,24.6,2,27.9,4c0.2,0.1,0.5,0,0.6-0.2s0-0.5-0.2-0.6C25.6,1.6,22.4,0.7,19.2,0.7L19.2,0.7z"/>
	</g>
	<g transform="translate(11.603 6)">
		<g transform="translate(0 4.099)">
			<path class="st0" d="M6.7,9.8H5C2.6,9.9,0.5,8.1,0.4,5.7c0-0.1,0-0.1,0-0.2c0-2.6,2.1-5.1,4.6-5.1h6.2c0.5,0,0.9,0.7,0.9,1.2
				s-0.4,1.2-0.9,1.2H5C3.5,2.8,2.2,4,2.2,5.5l0,0c0,1.6,1.4,2,2.8,2h1.7c0.5,0,0.9,0.7,0.9,1.2S7.2,9.8,6.7,9.8z"/>
			<path class="st0" d="M6.7,10.1H5c-2.6,0.1-4.8-1.8-5-4.5c0-0.1,0-0.1,0-0.2C0,2.6,2.3,0,5,0h6.2c0.8,0.2,1.4,1,1.3,1.8
				c-0.1,0.6-0.6,1.1-1.3,1.3H5c-0.6,0-1.2,0.2-1.7,0.7c-0.5,0.4-0.7,1-0.7,1.7c0,0.8,0.3,1.6,2.4,1.6h1.7C7.6,7.2,8.1,8,8,8.9
				C7.9,9.5,7.4,10,6.7,10.1L6.7,10.1z M5,0.7C2.5,0.9,0.7,3,0.7,5.5c0,2.2,1.8,4,4,4c0.1,0,0.2,0,0.3,0h1.7C7,9.4,7.3,9,7.3,8.6
				S7,7.8,6.7,7.8H5C2.9,7.8,1.9,7,1.9,5.5c0-0.8,0.3-1.6,0.9-2.2S4.2,2.4,5,2.4h6.2c0.3,0,0.6-0.5,0.6-0.8s-0.3-0.8-0.6-0.8H5V0.7z
				"/>
		</g>
		<g transform="translate(0.102 11.156)">
			<path class="st0" d="M8.2,9.8h-7c-0.5,0-0.9-0.7-0.9-1.2s0.4-1.2,0.9-1.2h7C9.6,7.4,11,7,11,5.3c0,0,0,0,0-0.1
				c0.1-0.6,0-1.3-0.5-1.8C9.9,2.9,9.1,2.6,8.2,2.7H5.7C5.2,2.7,4.8,2,4.8,1.5s0.4-1.2,0.9-1.2h2.5C9.7,0.4,11,1,12,2.1
				c0.8,1,1.1,2.3,0.9,3.5C12.8,8,10.8,9.8,8.4,9.8C8.4,9.8,8.3,9.8,8.2,9.8z"/>
			<path class="st0" d="M8.2,10.1h-7C0.4,10-0.1,9.2,0,8.3C0.1,7.7,0.6,7.2,1.3,7h7c1.1,0,2.4-0.3,2.4-1.7V5.1
				c0.1-0.5,0-1.1-0.4-1.4C9.8,3.2,9,3,8.3,3.1H5.7c-0.8-0.2-1.4-1-1.3-1.8C4.6,0.6,5.1,0.1,5.7,0h2.5c1.5,0,3,0.7,4,1.8
				c0.9,1.1,1.2,2.5,1,3.8C13.2,8.2,11.1,10.1,8.2,10.1z M1.3,7.8C1,7.8,0.7,8.2,0.7,8.6S1,9.4,1.3,9.4h7c2.2,0.2,4.1-1.5,4.3-3.6
				c0-0.1,0-0.1,0-0.2c0.2-1.2-0.1-2.4-0.8-3.3c-0.9-1-2.1-1.6-3.4-1.6H5.7c-0.3,0-0.6,0.4-0.6,0.8s0.3,0.8,0.6,0.8h2.5
				c0.9-0.1,1.9,0.2,2.6,0.9c0.5,0.6,0.8,1.4,0.6,2.1l0,0c0,1.5-1.2,2.4-3.1,2.4L1.3,7.8z"/>
		</g>
		<g transform="translate(5.262)">
			<path class="st0" d="M1.1,6.1c-0.5,0-0.8-0.4-0.8-0.9V1.3c0-0.5,0.3-0.9,0.8-0.9s0.8,0.4,0.8,0.9v3.8C1.9,5.6,1.6,6.1,1.1,6.1z"
				/>
			<path class="st0" d="M1.1,6.4C0.5,6.4,0,5.9,0,5.2V5.1V1.3C-0.1,0.7,0.4,0.1,1,0s1.2,0.4,1.3,1c0,0.1,0,0.2,0,0.3v3.8
				C2.3,5.8,1.9,6.3,1.1,6.4C1.2,6.4,1.2,6.4,1.1,6.4z M1.1,0.7c-0.4,0-0.4,0.4-0.4,0.6v3.8c0,0.2,0,0.6,0.4,0.6s0.4-0.4,0.4-0.6
				V1.3C1.6,1.2,1.5,0.7,1.1,0.7L1.1,0.7z"/>
		</g>
		<g transform="translate(5.262 18.95)">
			<path class="st0" d="M1.1,6.1c-0.5,0-0.8-0.4-0.8-0.9V1.3c0-0.5,0.3-0.9,0.8-0.9s0.8,0.4,0.8,0.8v0.1v3.8
				C1.9,5.6,1.6,6.1,1.1,6.1z"/>
			<path class="st0" d="M1.1,6.4C0.5,6.4,0,5.9,0,5.2V5.1V1.3C-0.1,0.7,0.4,0.1,1,0s1.2,0.4,1.3,1c0,0.1,0,0.2,0,0.3v3.8
				C2.3,5.8,1.9,6.4,1.1,6.4C1.2,6.4,1.2,6.4,1.1,6.4z M1.1,0.7c-0.4,0-0.4,0.4-0.4,0.6v3.8c0,0.2,0,0.6,0.4,0.6s0.4-0.4,0.4-0.6
				V1.3C1.6,1.2,1.5,0.7,1.1,0.7z"/>
		</g>
	</g>
</g>
</svg>
