<?xml version="1.0" encoding="utf-8"?>
<!-- Generator: Adobe Illustrator 24.1.3, SVG Export Plug-In . SVG Version: 6.00 Build 0)  -->
<svg version="1.1" id="Capa_1" xmlns="http://www.w3.org/2000/svg" xmlns:xlink="http://www.w3.org/1999/xlink" x="0px" y="0px"
	 viewBox="0 0 38.3 38.3" style="enable-background:new 0 0 38.3 38.3;" xml:space="preserve">
<style type="text/css">
	.st0{fill:#048FF7;}
</style>
<g transform="translate(-33 -1064)">
	<g transform="translate(33 1064)">
		<path class="st0" d="M19.2,38C8.8,38,0.4,29.5,0.4,19.2C0.4,8.8,8.8,0.4,19.2,0.4c3.3,0,6.5,0.9,9.4,2.5C29,3.1,29.1,3.6,28.9,4
			c-0.1,0.2-0.4,0.4-0.7,0.4c-0.1,0-0.3,0-0.4-0.1C19.5-0.5,9,2.3,4.3,10.6s-1.9,18.7,6.3,23.5c8.2,4.7,18.7,1.9,23.5-6.3
			c1.5-2.6,2.3-5.6,2.3-8.6c0-0.8-0.1-1.5-0.2-2.3c-0.2-1.3-0.5-2.6-1-3.9c-0.3-0.8-0.7-1.6-1.1-2.4c-0.2-0.4-0.1-0.9,0.3-1.1
			c0.1-0.1,0.3-0.1,0.4-0.1c0.3,0,0.6,0.2,0.7,0.4c1.2,2.1,2,4.5,2.3,6.9c1.4,10.3-5.9,19.8-16.2,21.2C20.8,37.9,20,38,19.2,38
			L19.2,38z"/>
		<path class="st0" d="M19.2,38.3C8.6,38.3,0,29.8,0,19.2S8.6,0,19.2,0c3.4,0,6.7,0.9,9.6,2.6c0.6,0.3,0.8,1,0.4,1.6l0,0
			c-0.3,0.5-1,0.7-1.6,0.4C19.5,0,9.3,2.7,4.6,10.8c-4.6,8-1.8,18.3,6.2,22.9s18.3,1.8,22.9-6.2c2.5-4.4,2.9-9.7,1.1-14.4
			c-0.3-0.8-0.7-1.6-1.1-2.3c-0.3-0.6-0.1-1.3,0.4-1.6l0,0c0.6-0.3,1.3-0.1,1.6,0.4c1.2,2.2,2.1,4.5,2.4,7c0.1,0.8,0.2,1.7,0.2,2.6
			C38.3,29.8,29.8,38.3,19.2,38.3z M19.2,0.7C9,0.7,0.7,9,0.7,19.2S9,37.7,19.2,37.7s18.5-8.3,18.5-18.5c0-3.2-0.9-6.4-2.5-9.2
			c-0.1-0.2-0.4-0.3-0.6-0.2c-0.2,0.1-0.3,0.4-0.2,0.6c0.5,0.8,0.8,1.6,1.2,2.4c0.5,1.3,0.8,2.6,1,4c0.1,0.8,0.2,1.6,0.2,2.3
			c0,9.7-7.9,17.5-17.6,17.5S1.7,28.7,1.7,19S9.5,1.6,19.2,1.6c3.1,0,6.1,0.8,8.7,2.3c0.2,0.1,0.5,0,0.6-0.2s0-0.5-0.2-0.6
			C25.6,1.6,22.4,0.7,19.2,0.7L19.2,0.7z"/>
	</g>
	<g transform="translate(-949.563 568.138)">
		<path class="st0" d="M1009.8,507.3h-15.7c-1.1,0-2.1,0.9-2.1,2.1v10.7c0,1.1,0.9,2.1,2.1,2.1h15.7c1.1,0,2.1-0.9,2.1-2.1v-10.7
			C1011.9,508.3,1011,507.3,1009.8,507.3z M994.1,508.3h15.7c0.4,0,0.7,0.2,0.9,0.5l-7.9,6.9l0,0c-0.5,0.5-1.2,0.5-1.7,0l0,0l-7.9-7
			C993.4,508.5,993.7,508.3,994.1,508.3L994.1,508.3z M1009.8,521.2h-15.7c-0.6,0-1.1-0.5-1.1-1.1V510l7.5,6.5c0.8,0.8,2.2,0.8,3,0
			l7.5-6.5v10.2C1010.9,520.7,1010.4,521.2,1009.8,521.2z"/>
		<path class="st0" d="M1009.8,522.7h-15.7c-1.4,0-2.5-1.1-2.5-2.5v-10.7c0-1.4,1.1-2.5,2.5-2.5h15.7c1.4,0,2.5,1.1,2.5,2.5v10.7
			C1012.4,521.5,1011.2,522.7,1009.8,522.7z M993.5,511v9.1c0,0.3,0.3,0.6,0.6,0.6l0,0h15.7c0.3,0,0.6-0.3,0.6-0.6V511l-6.7,5.8
			c-1,1-2.6,1-3.7,0L993.5,511z M993.9,508.8l7.5,6.6c0.2,0.3,0.7,0.3,1,0.1c0,0,0,0,0.1-0.1l7.6-6.6c-0.1,0-0.1,0-0.2,0h-15.7
			C994,508.8,994,508.8,993.9,508.8z"/>
	</g>
</g>
</svg>
