<?xml version="1.0" encoding="utf-8"?>
<!-- Generator: Adobe Illustrator 24.1.3, SVG Export Plug-In . SVG Version: 6.00 Build 0)  -->
<svg version="1.1" id="Capa_1" xmlns="http://www.w3.org/2000/svg" xmlns:xlink="http://www.w3.org/1999/xlink" x="0px" y="0px"
	 viewBox="0 0 51.4 51.4" style="enable-background:new 0 0 51.4 51.4;" xml:space="preserve">
<style type="text/css">
	.st0{fill:#FFFFFF;}
	.st1{fill-rule:evenodd;clip-rule:evenodd;fill:#FFFFFF;}
</style>
<g transform="translate(-895.582 875.712)">
	<path class="st0" d="M910.5-837.5c0-0.5,0.3-0.8,0.6-0.8h23.6v-1.9h-4.6c-2,0-3.7-1.7-3.7-3.7c0-0.4,0.1-0.7,0.2-1.1l0,0
		c0-0.2,0.1-0.3,0.2-0.5l0,0l0,0c0.6-1.3,1.9-2.1,3.3-2.1h4.6v-1.8h-29.4v11h2.6c0.7,0,0.7,0.5,0.7,0.8c0,0.4-0.2,0.7-0.6,0.7
		c0,0,0,0,0,0c0,0-0.1,0-0.1,0h-2.6v1.2c0,0.7,0.5,1.2,1.2,1.2l0,0h27.1c0.7,0,1.2-0.5,1.2-1.2v0l0,0v-1.2h-23.5
		C910.8-836.8,910.5-837.1,910.5-837.5C910.5-837.5,910.5-837.5,910.5-837.5C910.5-837.5,910.5-837.5,910.5-837.5z"/>
	<path class="st0" d="M930.2-844.8c-0.6,0-1,0.4-1,1c0,0.6,0.4,1,1,1c0.5,0,1-0.4,1-1l0,0C931.2-844.4,930.8-844.8,930.2-844.8
		C930.2-844.8,930.2-844.8,930.2-844.8z"/>
	<path class="st0" d="M934.7-852.1c0-0.7-0.5-1.2-1.2-1.2h-27.1c-0.7,0-1.2,0.5-1.2,1.2v0l0,0v1h29.4L934.7-852.1z"/>
	<path class="st0" d="M936.2-846.6h-6.1c-1,0-1.9,0.5-2.4,1.4c0,0,0,0.1-0.1,0.1c0,0.1-0.1,0.2-0.1,0.2c-0.2,0.6-0.2,1.3,0,1.9
		c0,0.1,0.1,0.2,0.1,0.2c0,0,0,0.1,0.1,0.1c0.5,0.9,1.4,1.4,2.4,1.4h6.1c0.1,0,0.1-0.1,0.1-0.1c0,0,0,0,0,0v-5.2
		C936.3-846.5,936.3-846.6,936.2-846.6L936.2-846.6z M930.2-841.9c-1.1,0-2-0.9-2-2s0.9-2,2-2c1.1,0,2,0.9,2,2
		C932.2-842.8,931.3-841.9,930.2-841.9C930.2-841.9,930.2-841.9,930.2-841.9z"/>
	<path class="st0" d="M908.7-858.5l1.3,4.1c0.2,0,0.4-0.1,0.6-0.1l-1.2-3.8c-0.1-0.4,0.1-0.9,0.5-1h0l19.3-6c0.4-0.1,0.9,0.1,1,0.5
		l2.5,7.9c0.2,0.5,0.1,0.8-0.5,1l-4.4,1.4h1.9l3.1-1c0.5-0.1,0.8-0.6,0.6-1.1c0,0,0,0,0-0.1l-2.8-8.7c-0.2-0.5-0.7-0.8-1.2-0.6
		c0,0,0,0,0,0l0,0l-20.2,6.3C908.8-859.5,908.5-859,908.7-858.5C908.7-858.5,908.7-858.5,908.7-858.5L908.7-858.5L908.7-858.5z"/>
	<path class="st1" d="M925.5-857.1c0.2,0.5,0.3,1,0.3,1.5c0,0.3,0.2,0.5,0.5,0.5c0,0,0.1,0,0.1,0l3.8-1.2c0.3-0.1,0.5-0.5,0.4-0.8
		l-1-3.1c-0.1-0.2-0.2-0.3-0.4-0.4c-1.2-0.3-2.1-1.3-2.1-2.5c0-0.3-0.3-0.5-0.6-0.5c0,0,0,0,0,0c0,0-0.1,0-0.1,0l-13.1,4.1
		c-0.3,0.1-0.4,0.4-0.3,0.6c0,0,0,0,0,0c0,0,0,0.1,0,0.1c0.7,1,0.5,2.3-0.3,3.2c-0.1,0.1-0.2,0.3-0.1,0.5c0.1,0.2,0.3,0.4,0.5,0.4
		h4.7c0-0.1,0-0.1-0.1-0.2l0,0c-0.8-2,0.1-4.2,2.1-5c0.1-0.1,0.3-0.1,0.5-0.2c2.1-0.7,4.4,0.4,5.1,2.5c0,0,0,0,0,0
		C925.4-857.3,925.5-857.2,925.5-857.1z"/>
	<path class="st0" d="M923.1-854.5c0.2-0.3,0.3-0.8,0.1-1.2c-0.3-0.8-0.9-0.9-1.5-0.9l-0.4-1.2c0.4-0.1,0.6,0,0.8,0
		c0.2-0.1,0.2-0.3,0.1-0.4c-0.1-0.3-0.7-0.2-1.1-0.1l-0.1-0.2c0-0.1-0.1-0.1-0.2-0.1c-0.1,0-0.1,0.1-0.1,0.2l0.1,0.2
		c-0.6,0.2-0.9,0.8-0.7,1.5c0,0,0,0,0,0l0,0c0.3,0.8,0.9,0.8,1.5,0.8l0.5,1.4c0,0-0.1,0-0.1,0L923.1-854.5z M920.6-856.9
		c-0.1-0.3,0.1-0.5,0.4-0.7l0.4,1.1C921-856.6,920.7-856.6,920.6-856.9L920.6-856.9z M921.9-855.9c0.3,0,0.6,0.2,0.7,0.5
		c0.1,0.3,0,0.6-0.3,0.8L921.9-855.9z"/>
</g>
</svg>
