<?xml version="1.0" encoding="utf-8"?>
<!-- Generator: Adobe Illustrator 24.1.3, SVG Export Plug-In . SVG Version: 6.00 Build 0)  -->
<svg version="1.1" id="Capa_1" xmlns="http://www.w3.org/2000/svg" xmlns:xlink="http://www.w3.org/1999/xlink" x="0px" y="0px"
	 viewBox="0 0 51.4 51.4" style="enable-background:new 0 0 51.4 51.4;" xml:space="preserve">
<style type="text/css">
	.st0{fill:none;stroke:#FFFFFF;stroke-width:2;stroke-linecap:round;stroke-linejoin:round;}
	.st1{fill:none;stroke:#FFFFFF;stroke-width:2;stroke-linecap:square;stroke-linejoin:round;}
	.st2{fill:none;stroke:#FFFFFF;stroke-width:3;stroke-linecap:round;stroke-linejoin:round;}
	.st3{fill:#FFFFFF;stroke:#FFFFFF;stroke-width:2;stroke-linecap:round;stroke-linejoin:round;}
	.st4{fill:#FFFFFF;stroke:#FFFFFF;stroke-miterlimit:10;}
</style>
<g transform="translate(55 501)">
	<g transform="translate(0)">
		<line class="st0" x1="-29.1" y1="-486.8" x2="-29.1" y2="-490"/>
		<line class="st1" x1="-31.7" y1="-490" x2="-26.4" y2="-490"/>
		<path class="st2" d="M-16.1-473.8c0-7.1-5.8-12.9-12.9-12.9c-7.1,0-12.9,5.8-12.9,12.9c0,0,0,0,0,0c0,7.1,5.8,12.9,12.9,12.9
			c0,0,0,0,0,0C-21.9-460.9-16.1-466.7-16.1-473.8z"/>
		<circle class="st3" cx="-29.1" cy="-473.8" r="1"/>
		<g transform="translate(11.891 6.98)">
			<rect x="-42" y="-490" class="st4" width="2.1" height="9.2"/>
		</g>
	</g>
</g>
</svg>
