<?xml version="1.0" encoding="utf-8"?>
<!-- Generator: Adobe Illustrator 24.1.3, SVG Export Plug-In . SVG Version: 6.00 Build 0)  -->
<svg version="1.1" id="Capa_1" xmlns="http://www.w3.org/2000/svg" xmlns:xlink="http://www.w3.org/1999/xlink" x="0px" y="0px"
	 viewBox="0 0 38.6 38.3" style="enable-background:new 0 0 38.6 38.3;" xml:space="preserve">
<style type="text/css">
	.st0{fill:#048FF7;}
</style>
<g transform="translate(-718 -488.642)">
	<path class="st0" d="M741.2,523.5c-0.3,0.1-0.6,0.2-1,0.2c-0.8,0.2-1.4,1-1.2,1.8s0.9,1.3,1.8,1.2c0.4-0.1,0.8-0.2,1.2-0.2
		c0.8-0.2,1.4-1,1.2-1.9C743,523.8,742.1,523.3,741.2,523.5C741.3,523.5,741.2,523.5,741.2,523.5L741.2,523.5z"/>
	<path class="st0" d="M752.7,502.7c0.3,0.8,1.2,1.2,2,0.9c0.8-0.3,1.2-1.1,0.9-1.9c-0.1-0.4-0.3-0.7-0.4-1.1c-0.3-0.8-1.2-1.2-2-0.9
		s-1.2,1.2-0.9,2C752.5,502,752.6,502.4,752.7,502.7z"/>
	<path class="st0" d="M746.3,521.3c-0.3,0.2-0.6,0.4-0.8,0.5c-0.7,0.4-1,1.4-0.6,2.1c0.4,0.7,1.4,1,2.1,0.6l0,0
		c0.3-0.2,0.7-0.4,1-0.6c0.7-0.5,0.9-1.4,0.4-2.2S747,520.8,746.3,521.3L746.3,521.3L746.3,521.3z"/>
	<path class="st0" d="M756.6,507c0-0.9-0.7-1.6-1.5-1.6s-1.6,0.7-1.6,1.5c0,0.1,0,0.1,0,0.1c0,0.3,0,0.7,0,1
		c-0.1,0.9,0.6,1.6,1.4,1.7c0.9,0.1,1.6-0.6,1.7-1.4c0-0.1,0-0.1,0-0.2C756.6,507.8,756.6,507.4,756.6,507z"/>
	<path class="st0" d="M752.4,517.2c-0.7-0.5-1.7-0.4-2.2,0.3l0,0c-0.2,0.3-0.4,0.5-0.6,0.8c-0.6,0.7-0.5,1.6,0.2,2.2l0.1,0.1
		c0.7,0.5,1.6,0.3,2.1-0.3c0.3-0.3,0.5-0.6,0.7-0.9C753.3,518.7,753.1,517.7,752.4,517.2z"/>
	<path class="st0" d="M754.7,511.6c-0.8-0.3-1.7,0.2-1.9,1c-0.1,0.3-0.2,0.6-0.3,0.9c-0.3,0.7,0,1.4,0.6,1.8
		c0.1,0.1,0.2,0.1,0.3,0.2c0.8,0.3,1.7-0.1,2-0.9c0.1-0.4,0.3-0.7,0.4-1.1C756,512.7,755.5,511.8,754.7,511.6z"/>
	<path class="st0" d="M734.4,523.7c-1.4-0.2-2.7-0.7-4-1.3l0,0c-0.3-0.1-0.6-0.3-0.9-0.4l0,0c-7.8-4.3-10.7-14.2-6.4-22
		c0.3-0.5,0.6-1,0.9-1.5c1.1-1.5,2.4-2.9,4-4h0.1c5.5-3.8,12.7-3.8,18.2-0.1l-1.2,1.8c-0.3,0.5-0.1,0.8,0.5,0.8l5.3-0.5
		c0.5,0,0.8-0.4,0.8-0.9c0-0.1,0-0.2,0-0.2l-1.4-5.1c-0.2-0.6-0.6-0.6-0.9-0.2l-1.2,1.8c-4.1-2.8-9.2-3.9-14-3
		c-0.5,0.1-1,0.2-1.5,0.3l0,0h-0.1c-4.2,1.1-8,3.6-10.6,7.1c0,0,0,0.1-0.1,0.1c-0.1,0.1-0.2,0.2-0.3,0.4c-0.1,0.2-0.3,0.4-0.4,0.6
		c0,0,0,0,0,0.1c-2.2,3.4-3.2,7.3-3.1,11.3l0,0c0,0.4,0,0.8,0.1,1.2c0,0,0,0,0,0.1c0,0.4,0.1,0.8,0.2,1.2c0.7,3.9,2.6,7.6,5.4,10.4
		l0,0l0,0c0.8,0.8,1.6,1.4,2.5,2.1c2.3,1.6,4.9,2.7,7.7,3.2c0.8,0.2,1.7-0.4,1.8-1.3S735.3,523.9,734.4,523.7L734.4,523.7z"/>
	<path class="st0" d="M736.4,495.2c-0.7,0-1.3,0.6-1.3,1.3V509l11.4,5.9c0.6,0.3,1.4,0.1,1.7-0.5s0.1-1.4-0.5-1.7l0,0l-10.1-5.2v-11
		C737.6,495.8,737.1,495.2,736.4,495.2z"/>
</g>
</svg>
