<?xml version="1.0" encoding="utf-8"?>
<!-- Generator: Adobe Illustrator 24.1.3, SVG Export Plug-In . SVG Version: 6.00 Build 0)  -->
<svg version="1.1" id="Capa_1" xmlns="http://www.w3.org/2000/svg" xmlns:xlink="http://www.w3.org/1999/xlink" x="0px" y="0px"
	 viewBox="0 0 51.4 51.4" style="enable-background:new 0 0 51.4 51.4;" xml:space="preserve">
<style type="text/css">
	.st0{fill:#FFFFFF;stroke:#FFFFFF;stroke-miterlimit:10;}
</style>
<path class="st0" d="M25.6,27.4h-2.3c-3.7,0-6.3-2.6-6.3-5.8c0-3.6,2.9-6.9,6.3-6.9h8.4c0.7,0,1.3,0.9,1.3,1.6s-0.6,1.6-1.3,1.6
	h-8.4c-2.1,0-3.8,1.6-3.8,3.7c0,0,0,0,0,0.1c0,2.2,2,2.7,3.8,2.7h2.3c0.7,0,1.3,0.9,1.3,1.6S26.3,27.4,25.6,27.4z"/>
<path class="st0" d="M27.9,36.9h-9.5c-0.7,0-1.3-0.9-1.3-1.6s0.6-1.6,1.3-1.6h9.5c1.8,0,3.8-0.6,3.8-2.8c0-0.1,0,0,0-0.1
	c0.2-0.9,0-1.8-0.6-2.4c-0.9-0.8-2-1.2-3.2-1.1h-3.4c-0.7,0-1.3-0.9-1.3-1.6s0.6-1.6,1.3-1.6h3.4c1.9,0,3.8,0.9,5.1,2.3
	c1.1,1.4,1.5,3.1,1.2,4.8C34.1,34.5,31.5,36.9,27.9,36.9z"/>
<path class="st0" d="M25.2,16.7c-0.7,0-1.1-0.6-1.1-1.3v-5.2c0-0.7,0.4-1.3,1.1-1.3s1.1,0.6,1.1,1.3v5.2
	C26.3,16.2,25.9,16.7,25.2,16.7z"/>
<path class="st0" d="M25.2,42.5c-0.7,0-1.1-0.6-1.1-1.3V36c0-0.7,0.4-1.3,1.1-1.3s1.1,0.6,1.1,1.3v5.2
	C26.3,41.9,25.9,42.5,25.2,42.5z"/>
</svg>
