<svg xmlns="http://www.w3.org/2000/svg" width="102.801" height="31.825" viewBox="0 0 102.801 31.825"><defs><style>.a{fill:#fff;}</style></defs><g transform="translate(-58.603 -122.398)"><path class="a" d="M136.816,139.076a2.063,2.063,0,0,1-.639.856,3.147,3.147,0,0,1-1.136.547,6.367,6.367,0,0,1-1.689.195h-3.5V130.607h3.41a6.352,6.352,0,0,1,1.638.18,2.856,2.856,0,0,1,1.065.51,1.852,1.852,0,0,1,.573.784,2.765,2.765,0,0,1,.174,1,2.955,2.955,0,0,1-.135.943,1.911,1.911,0,0,1-.965,1.113,4.365,4.365,0,0,1-.74.289v.084a4.779,4.779,0,0,1,.805.244,2.184,2.184,0,0,1,.682.439,2.073,2.073,0,0,1,.475.712,2.719,2.719,0,0,1,.179,1.05,3,3,0,0,1-.2,1.121m-1.877-6.714a1.424,1.424,0,0,0-.617-.417,2.814,2.814,0,0,0-.776-.153c-.273-.013-.511-.021-.712-.021h-1.5v3.164H132.8a5.1,5.1,0,0,0,.84-.073,2.472,2.472,0,0,0,.77-.259,1.514,1.514,0,0,0,.561-.524,1.631,1.631,0,0,0,.215-.885,1.218,1.218,0,0,0-.253-.833m.318,4.616a1.5,1.5,0,0,0-.569-.526,2.628,2.628,0,0,0-.817-.272,5.612,5.612,0,0,0-.965-.08h-1.568v3.408h1.654a7.01,7.01,0,0,0,.97-.065,2.343,2.343,0,0,0,.791-.245,1.31,1.31,0,0,0,.526-.51,1.767,1.767,0,0,0,.185-.863,1.576,1.576,0,0,0-.207-.847" transform="translate(-32.693 -3.767)"/><path class="a" d="M150.361,142.8c-.522.019-1.043.028-1.56.028a8.222,8.222,0,0,1-1.344-.1,2.813,2.813,0,0,1-1.049-.375,1.849,1.849,0,0,1-.685-.755,2.745,2.745,0,0,1-.244-1.244,2.088,2.088,0,0,1,.4-1.358,2.339,2.339,0,0,1,.994-.706,4.382,4.382,0,0,1,1.3-.257q.7-.037,1.292-.036c.162,0,.345.007.548.023s.426.021.677.021a9.1,9.1,0,0,0-.042-.984,1.049,1.049,0,0,0-.253-.6,1.181,1.181,0,0,0-.647-.311,6.94,6.94,0,0,0-1.231-.085,8.7,8.7,0,0,0-1.251.093c-.429.062-.847.132-1.249.209v-1.122a13.364,13.364,0,0,1,2.658-.273,11.954,11.954,0,0,1,1.424.078,2.879,2.879,0,0,1,1.082.339,1.71,1.71,0,0,1,.688.753,3.048,3.048,0,0,1,.243,1.332v5.19c-.642.076-1.226.124-1.747.143m.339-3.7c-.31-.01-.575-.019-.793-.029s-.385-.013-.491-.013a9.611,9.611,0,0,0-1.018.049,2.457,2.457,0,0,0-.772.2,1.129,1.129,0,0,0-.484.411,1.224,1.224,0,0,0-.168.674,1.308,1.308,0,0,0,.2.755,1.167,1.167,0,0,0,.52.417,2.592,2.592,0,0,0,.744.179,8.17,8.17,0,0,0,.852.044c.191,0,.383-.008.577-.022s.471-.03.838-.05Z" transform="translate(-39.862 -5.767)"/><path class="a" d="M166.982,142.673v-4.828c0-.2-.007-.4-.02-.6a1.384,1.384,0,0,0-.144-.54.959.959,0,0,0-.389-.39,1.54,1.54,0,0,0-.755-.152,2.844,2.844,0,0,0-.6.074c-.222.047-.441.106-.661.172s-.434.143-.639.224-.392.156-.555.224v5.822h-1.424V135.1h1.324v.692q.56-.243.964-.4a6.429,6.429,0,0,1,.732-.257,4.044,4.044,0,0,1,.647-.129,6.918,6.918,0,0,1,.706-.034,2.794,2.794,0,0,1,.811.122,1.963,1.963,0,0,1,.735.4,2.108,2.108,0,0,1,.524.718,2.548,2.548,0,0,1,.2,1.056v5.407Z" transform="translate(-47.346 -5.767)"/><path class="a" d="M182.439,142.794c-.317.025-.63.035-.935.035a5.34,5.34,0,0,1-1.683-.25,3.489,3.489,0,0,1-1.308-.763,3.389,3.389,0,0,1-.847-1.279,4.87,4.87,0,0,1-.3-1.792,3.889,3.889,0,0,1,.316-1.61,3.459,3.459,0,0,1,.862-1.186,3.761,3.761,0,0,1,1.287-.733,4.894,4.894,0,0,1,1.589-.252c.2,0,.383,0,.547.008s.317.015.465.029.3.034.454.058l.5.077v1.123c-.308-.047-.571-.087-.791-.117a5.557,5.557,0,0,0-.691-.042,4.712,4.712,0,0,0-1.193.145,2.645,2.645,0,0,0-.957.459,2.12,2.12,0,0,0-.638.825,3,3,0,0,0-.231,1.245,2.8,2.8,0,0,0,.814,2.206,3.145,3.145,0,0,0,2.219.712c.212-.009.436-.023.677-.043s.525-.058.863-.116v1.107a7.769,7.769,0,0,1-1.022.151" transform="translate(-54.491 -5.766)"/><path class="a" d="M197.693,140.44a3.675,3.675,0,0,1-.791,1.273,3.594,3.594,0,0,1-1.206.827,3.913,3.913,0,0,1-1.532.295,4.2,4.2,0,0,1-1.617-.295,3.313,3.313,0,0,1-1.2-.827,3.505,3.505,0,0,1-.741-1.266,4.975,4.975,0,0,1-.252-1.625,4.844,4.844,0,0,1,.258-1.631,3.427,3.427,0,0,1,.741-1.231,3.23,3.23,0,0,1,1.194-.775,4.44,4.44,0,0,1,1.617-.274,4.386,4.386,0,0,1,1.609.274,3.221,3.221,0,0,1,1.941,2.006,4.778,4.778,0,0,1,.259,1.631,4.528,4.528,0,0,1-.28,1.618m-1.82-3.712a2.317,2.317,0,0,0-3.416,0,3.361,3.361,0,0,0-.579,2.095,3.587,3.587,0,0,0,.579,2.153,2.234,2.234,0,0,0,3.416,0,3.6,3.6,0,0,0,.579-2.153,3.371,3.371,0,0,0-.579-2.095" transform="translate(-60.451 -5.742)"/><path class="a" d="M131.381,157.226v3.336h3.8v1.221h-3.8v4.284h-1.526V156h6.4v1.222Z" transform="translate(-32.693 -15.419)"/><path class="a" d="M143.516,154.675h1.436v1.394h-1.436Zm0,3.235h1.436v7.548h-1.436Z" transform="translate(-38.961 -14.81)"/><path class="a" d="M155.506,168.067V163.24c0-.2-.007-.4-.022-.606a1.343,1.343,0,0,0-.144-.539.948.948,0,0,0-.388-.391,1.538,1.538,0,0,0-.754-.151,2.806,2.806,0,0,0-.6.073c-.221.047-.44.106-.661.172s-.432.143-.639.225-.392.156-.553.223v5.821h-1.425v-7.573h1.324v.691c.372-.162.7-.3.964-.4a6.686,6.686,0,0,1,.731-.257,4.328,4.328,0,0,1,.649-.128,6.545,6.545,0,0,1,.7-.035,2.842,2.842,0,0,1,.812.122,1.957,1.957,0,0,1,.734.4,2.1,2.1,0,0,1,.524.717,2.528,2.528,0,0,1,.2,1.057v5.406Z" transform="translate(-42.08 -17.418)"/><path class="a" d="M170.394,168.2q-.783.029-1.558.029a8.087,8.087,0,0,1-1.347-.1,2.834,2.834,0,0,1-1.048-.373,1.834,1.834,0,0,1-.685-.755,2.756,2.756,0,0,1-.243-1.243,2.084,2.084,0,0,1,.4-1.359,2.323,2.323,0,0,1,.994-.7,4.357,4.357,0,0,1,1.3-.259c.465-.023.9-.036,1.29-.036.163,0,.347.008.548.023s.426.022.679.022a8.884,8.884,0,0,0-.045-.985,1,1,0,0,0-.253-.6,1.18,1.18,0,0,0-.645-.31,6.812,6.812,0,0,0-1.23-.086,8.847,8.847,0,0,0-1.251.093c-.432.063-.847.132-1.251.209v-1.123a13.471,13.471,0,0,1,2.66-.272,11.976,11.976,0,0,1,1.424.079,2.874,2.874,0,0,1,1.08.339,1.7,1.7,0,0,1,.69.755,3.05,3.05,0,0,1,.243,1.33v5.19q-.964.116-1.748.143m.34-3.7c-.31-.009-.574-.019-.8-.028s-.384-.014-.489-.014a9.26,9.26,0,0,0-1.017.05,2.447,2.447,0,0,0-.774.2,1.1,1.1,0,0,0-.482.411,1.219,1.219,0,0,0-.168.674,1.293,1.293,0,0,0,.2.754,1.178,1.178,0,0,0,.52.418,2.649,2.649,0,0,0,.743.178,7.875,7.875,0,0,0,.852.045c.191,0,.385-.007.577-.022s.471-.03.838-.052Z" transform="translate(-49.054 -17.418)"/><path class="a" d="M187.016,168.067V163.24c0-.2-.007-.4-.022-.606a1.343,1.343,0,0,0-.143-.539.952.952,0,0,0-.388-.391,1.543,1.543,0,0,0-.755-.151,2.805,2.805,0,0,0-.6.073c-.22.047-.44.106-.66.172s-.434.143-.639.225-.391.156-.554.223v5.821h-1.424v-7.573h1.323v.691q.563-.243.963-.4a6.591,6.591,0,0,1,.733-.257,4.321,4.321,0,0,1,.648-.128,6.569,6.569,0,0,1,.705-.035,2.829,2.829,0,0,1,.811.122,1.962,1.962,0,0,1,.735.4,2.108,2.108,0,0,1,.523.717,2.527,2.527,0,0,1,.2,1.057v5.406Z" transform="translate(-56.538 -17.418)"/><path class="a" d="M204.311,156.328v9.029l-.633.094c-.229.032-.464.062-.7.085s-.481.044-.725.058-.471.021-.684.021a5.276,5.276,0,0,1-1.653-.252,3.788,3.788,0,0,1-1.322-.74,3.406,3.406,0,0,1-.879-1.215,4.185,4.185,0,0,1-.314-1.675,5.151,5.151,0,0,1,.251-1.654,3.513,3.513,0,0,1,.739-1.273,3.434,3.434,0,0,1,1.2-.82,4.324,4.324,0,0,1,1.646-.293c.154,0,.363,0,.625.006a8.99,8.99,0,0,1,1.014.094v-3.12h1.437Zm-1.437,2.6c-.308-.047-.566-.08-.772-.1s-.392-.028-.556-.028a2.575,2.575,0,0,0-1.955.7,3.077,3.077,0,0,0-.671,2.184,3.462,3.462,0,0,0,.18,1.15,2.59,2.59,0,0,0,.52.892,2.292,2.292,0,0,0,.845.583,2.992,2.992,0,0,0,1.154.208c.134,0,.3,0,.5-.016s.448-.028.757-.056Z" transform="translate(-63.682 -14.81)"/><path class="a" d="M214.318,154.675h1.436v1.394h-1.436Zm0,3.235h1.436v7.548h-1.436Z" transform="translate(-71.447 -14.81)"/><path class="a" d="M226.311,168.067V163.24c0-.2-.007-.4-.023-.606a1.343,1.343,0,0,0-.144-.539.945.945,0,0,0-.388-.391,1.532,1.532,0,0,0-.754-.151,2.79,2.79,0,0,0-.6.073c-.221.047-.44.106-.66.172s-.436.143-.642.225-.389.156-.552.223v5.821H221.12v-7.573h1.323v.691q.56-.243.964-.4a6.469,6.469,0,0,1,.732-.257,4.348,4.348,0,0,1,.647-.128,6.627,6.627,0,0,1,.706-.035,2.847,2.847,0,0,1,.812.122,1.962,1.962,0,0,1,.733.4,2.081,2.081,0,0,1,.523.717,2.511,2.511,0,0,1,.2,1.057v5.406Z" transform="translate(-74.568 -17.418)"/><path class="a" d="M241.2,168.2c-.522.019-1.043.029-1.561.029a8.04,8.04,0,0,1-1.344-.1,2.841,2.841,0,0,1-1.05-.373,1.857,1.857,0,0,1-.682-.755,2.74,2.74,0,0,1-.244-1.243,2.068,2.068,0,0,1,.4-1.359,2.309,2.309,0,0,1,.994-.7,4.337,4.337,0,0,1,1.3-.259c.466-.023.9-.036,1.291-.036.162,0,.344.008.548.023s.426.022.677.022a8.673,8.673,0,0,0-.044-.985,1.019,1.019,0,0,0-.251-.6,1.187,1.187,0,0,0-.647-.31,6.8,6.8,0,0,0-1.231-.086,8.837,8.837,0,0,0-1.25.093c-.43.063-.849.132-1.25.209v-1.123a13.453,13.453,0,0,1,2.659-.272,11.944,11.944,0,0,1,1.423.079,2.885,2.885,0,0,1,1.082.339,1.7,1.7,0,0,1,.689.755,3.068,3.068,0,0,1,.242,1.33v5.19c-.641.077-1.225.126-1.746.143m.337-3.7c-.309-.009-.573-.019-.793-.028s-.387-.014-.491-.014a9.3,9.3,0,0,0-1.018.05,2.456,2.456,0,0,0-.772.2,1.121,1.121,0,0,0-.484.411,1.224,1.224,0,0,0-.166.674,1.293,1.293,0,0,0,.195.754,1.179,1.179,0,0,0,.518.418,2.667,2.667,0,0,0,.744.178,7.9,7.9,0,0,0,.852.045c.191,0,.384-.007.578-.022s.47-.03.836-.052Z" transform="translate(-81.54 -17.418)"/><g transform="translate(58.603 122.398)"><path class="a" d="M75.958,122.4a15.911,15.911,0,0,0-14.207,8.739c1.3,1.427,5.509,4.719,10.265,3.439a8.913,8.913,0,0,0,3.158-1.606c3.043-2.321,4.906-5.775,13.1-4.741A15.885,15.885,0,0,0,75.958,122.4" transform="translate(-60.047 -122.398)"/><path class="a" d="M63.915,168.66l0,.007,0-.008Z" transform="translate(-61.04 -143.624)"/><path class="a" d="M63.913,168.659h0Z" transform="translate(-61.039 -143.624)"/><path class="a" d="M81.313,167.58c-4,1.8-7.877,4.334-17.4-.019l0,.008a15.914,15.914,0,0,0,26.478-.615,11.147,11.147,0,0,0-9.084.627" transform="translate(-61.04 -142.526)"/><path class="a" d="M59.583,144.238l0,0h0" transform="translate(-59.053 -132.419)"/><path class="a" d="M96.19,138.021c3.75-.845,4.576-2.791,4.422-3.769a20.471,20.471,0,0,0-2.887-.177c-5.439-.011-9.2,4.251-9.286,4.332a32.764,32.764,0,0,0,7.751-.385" transform="translate(-72.293 -127.755)"/><path class="a" d="M64.8,166.534a21.7,21.7,0,0,0,9.038,2.329h0a16.257,16.257,0,0,0,7.109-1.96,19.4,19.4,0,0,0-7.432-1.573c-4.426.025-7.187.428-8.718,1.2" transform="translate(-61.448 -142.097)"/><path class="a" d="M92.093,146.093a6.6,6.6,0,0,1-2.606,1.228c7.449.531,13.028-3.057,13.739-7.151-.37-.191-1.95-1.79-11.132,5.923" transform="translate(-72.773 -130.431)"/><path class="a" d="M89.446,141.616a.016.016,0,0,0,0,.007c-.912,5.217-8.415,7.95-16.887,6.77a30.23,30.23,0,0,1-13.421-5.361v0h0a15.98,15.98,0,0,0,.42,9.531c.2.091,4.368,2.782,18.958-.359a22.776,22.776,0,0,1,10.923.456,15.97,15.97,0,0,0,.009-11.049" transform="translate(-58.603 -131.216)"/></g></g></svg>